# xmcd
#
# Track frame offsets: 
#        150
#        19594
#        42547
#        66434
#        83404
#        101482
#        119169
#        137727
#        162035
#        176971
#        197908
#        215825
#        239266
#
# Disc length: 3645 seconds
#
# Revision: 0
# Processed by: cddbd v1.5.1PL0 Copyright (c) Steve Scherf et al.
# Submitted via: ExactAudioCopy v0.95a5
#
DISCID=bf0e3b0d
DTITLE=Randy McStine - Guitarizam
DYEAR=2004
DGENRE=
TTITLE0=Six String Whiplash
TTITLE1=Shredding Skin
TTITLE2=Sonic Boom
TTITLE3=Blister
TTITLE4=Zarcon
TTITLE5=Mood Swings
TTITLE6=Vibrant Lights
TTITLE7=Funk Yer Face
TTITLE8=The Electric Shuffle
TTITLE9=Funkalicious
TTITLE10=Wired Boots
TTITLE11=Cries of War
TTITLE12=The Loner
EXTD=
EXTT0=
EXTT1=
EXTT2=
EXTT3=
EXTT4=
EXTT5=
EXTT6=
EXTT7=
EXTT8=
EXTT9=
EXTT10=
EXTT11=
EXTT12=
PLAYORDER=
